<svg xmlns="http://www.w3.org/2000/svg" width="64" height="64"><path d="M60.329 54.018a3.049 3.049 0 0 0-1.324.164l-4.3-4.9A2.972 2.972 0 0 0 55 48v-9h2.185a3 3 0 1 0 0-2H55V26.377l4-4.551a3.05 3.05 0 1 0-1.55-1.266L53.547 25H39v-5.184a3 3 0 1 0-2 0V25H22.2l-3.759-4.28A2.992 2.992 0 1 0 16 22a3.014 3.014 0 0 0 .8-.118l4.2 4.78V37h-2.184a3 3 0 1 0 0 2H21v9a2.967 2.967 0 0 0 .214 1.1l-4.41 5.018a3.075 3.075 0 0 0-1.134-.1 3 3 0 1 0 3.312 2.652 2.967 2.967 0 0 0-.54-1.39l4.1-4.672A2.968 2.968 0 0 0 24 51h13v5.184a3 3 0 1 0 2 0V51h13a2.957 2.957 0 0 0 1.284-.3l4.164 4.739a2.995 2.995 0 1 0 2.882-1.421zM44.208 34.794l6.5 6.5a1 1 0 0 1-1.414 1.414l-6.735-6.734-3.977 2.84a1 1 0 0 1-1.162 0l-3.977-2.84-6.735 6.734a1 1 0 0 1-1.414-1.414l6.5-6.5-8.373-5.98a1 1 0 0 1 1.163-1.628L38 36.771l13.418-9.585a1 1 0 0 1 1.163 1.628z" style="fill:#c4a2fc"/><path d="M43 30a20.827 20.827 0 0 0-8-16.483V4a3 3 0 0 0-3-3H12a3 3 0 0 0-3 3v9.517A20.827 20.827 0 0 0 1 30a21 21 0 0 0 42 0zm-3.962 8.355a30.634 30.634 0 0 0-8.376-4.06A29.488 29.488 0 0 0 31 30a29.679 29.679 0 0 0-.323-4.3 30.686 30.686 0 0 0 8.393-4.076 18.954 18.954 0 0 1-.032 16.731zM22 33a30.277 30.277 0 0 0-6.714.809A27.408 27.408 0 0 1 15 30a27.753 27.753 0 0 1 .27-3.812A30.35 30.35 0 0 0 22 27a29.51 29.51 0 0 0 6.736-.776A27.7 27.7 0 0 1 29 30a27.458 27.458 0 0 1-.28 3.772A29.556 29.556 0 0 0 22 33zm6.375 2.745A27.994 27.994 0 0 1 22 48.5a27.99 27.99 0 0 1-6.367-12.72A28.338 28.338 0 0 1 22 35a27.507 27.507 0 0 1 6.375.745zM11 4a.956.956 0 0 1 .047-.232l5.63 3.285-3.458 4.322a1 1 0 1 0 1.562 1.25l3.643-4.554L21.5 9.864a1 1 0 0 0 1.008 0l3.072-1.792 3.643 4.553a1 1 0 0 0 1.562-1.25l-3.462-4.322 5.63-3.284A.938.938 0 0 1 33 4v10a1 1 0 0 1-1 1h-7.5a1 1 0 0 0-.895.553L22 18.764l-1.6-3.211a1 1 0 0 0-.9-.553H12a1 1 0 0 1-1-1zm11 3.842L13.7 3h16.6zM18.882 17l2.223 4.447a1 1 0 0 0 1.79 0L25.118 17h.625a28.085 28.085 0 0 1 2.644 7.253A27.542 27.542 0 0 1 22 25a28.342 28.342 0 0 1-6.378-.781A28.131 28.131 0 0 1 18.257 17zm19.206 2.873a28.759 28.759 0 0 1-7.773 3.844A29.924 29.924 0 0 0 27.99 17H32a3 3 0 0 0 2.483-1.319 19.024 19.024 0 0 1 3.605 4.192zM9.517 15.681A3 3 0 0 0 12 17h4.01a30.006 30.006 0 0 0-2.32 6.693 28.054 28.054 0 0 1-7.785-3.808 19.015 19.015 0 0 1 3.612-4.204zm-4.594 5.958a30.142 30.142 0 0 0 8.4 4.036 28.1 28.1 0 0 0 .015 8.646 30.116 30.116 0 0 0-8.388 4.018 18.953 18.953 0 0 1-.031-16.7zM5.933 40.1a28.038 28.038 0 0 1 7.767-3.8 30.01 30.01 0 0 0 5.97 12.542A19 19 0 0 1 5.933 40.1zm18.4 8.746A30 30 0 0 0 30.3 36.279a28.745 28.745 0 0 1 7.759 3.829 19.006 19.006 0 0 1-13.729 8.734z" style="fill:#151a6a"/></svg>