<?xml version="1.0" encoding="utf-8"?>
<!-- Generator: Adobe Illustrator 16.0.0, SVG Export Plug-In . SVG Version: 6.00 Build 0)  -->
<!DOCTYPE svg PUBLIC "-//W3C//DTD SVG 1.0//EN" "http://www.w3.org/TR/2001/REC-SVG-20010904/DTD/svg10.dtd">
<svg version="1.0" id="Layer_1" xmlns="http://www.w3.org/2000/svg" xmlns:xlink="http://www.w3.org/1999/xlink" x="0px" y="0px"
	 width="100px" height="100px" viewBox="0 0 100 100" enable-background="new 0 0 100 100" xml:space="preserve">
<polygon points="10,45.352 24.21,66.667 10,87.981 "/>
<polygon points="90,45.352 75.788,66.667 90,87.981 "/>
<polygon points="70,70 30,70 16.668,90 83.333,90 "/>
<polygon points="30.001,63.333 70,63.333 83.333,43.333 16.668,43.333 "/>
<polygon points="22.324,36.667 30.01,36.667 18.652,16.992 21.543,15.326 10.768,10 10,21.992 12.887,20.326 "/>
<polygon points="38.937,36.667 45.833,36.667 41.043,18.795 44.269,17.936 35.236,10 31.392,21.387 34.611,20.521 "/>
<polygon points="77.676,36.667 69.99,36.667 81.348,16.992 78.457,15.326 89.231,10 90,21.992 87.112,20.326 "/>
<polygon points="61.062,36.667 54.167,36.667 58.955,18.795 55.729,17.936 64.763,10 68.606,21.387 65.388,20.521 "/>
</svg>
